<?xml version="1.0" encoding="utf-8"?>
<!-- Generator: Adobe Illustrator 26.3.0, SVG Export Plug-In . SVG Version: 6.00 Build 0)  -->
<svg version="1.1" id="Layer_1" xmlns="http://www.w3.org/2000/svg" xmlns:xlink="http://www.w3.org/1999/xlink" x="0px" y="0px"
	 viewBox="0 0 1080 1080" style="enable-background:new 0 0 1080 1080;" xml:space="preserve">
<style type="text/css">
	.st0{fill:#BEBFCA;}
	.st1{fill:#BB942F;stroke:#BCBEC0;stroke-miterlimit:10;}
	.st2{fill:none;stroke:#000000;stroke-width:3;stroke-miterlimit:10;}
	.st3{fill:none;stroke:#F7941D;stroke-width:3;stroke-miterlimit:10;}
</style>
<path class="st0" d="M474.07,582.88c-4.82,2.66-9.14,5.03-13.47,7.42c-13.81,7.63-27.78,14.98-41.86,22.1
	c-1,0.5-1.98,1.03-2.98,1.53c-0.66,0.34-1.31,0.15-1.72-0.36c-0.81-0.99-1.52-2.05-2.25-3.1c-14.78-21.29-24.53-44.61-28.86-70.22
	c-2.73-16.18-3.39-32.41-1.5-48.69c8.39-72.35,58.72-127.19,120.96-146.49c9.75-3.02,19.7-5.14,29.87-6.35
	c7.15-0.85,14.32-1.47,21.5-1.43c63.66,0.35,118.8,33.88,149.24,85.4c0.86,1.46,2.62,2.94,2.04,4.59c-0.46,1.3-2.23,2.16-3.47,3.15
	c-14.96,11.98-30.19,23.62-45.61,34.99c-1.14,0.84-2.21,1.84-3.84,2.31c-15.32-32.17-39.89-53.52-74.81-61.48
	c-29.51-6.72-57.5-1.7-82.77,15.26c-26.93,18.08-42.8,43.54-46.97,75.69C443.42,529.35,452.76,557.77,474.07,582.88z"/>
<path class="st0" d="M723.3,544.32c0.54,0.78,0.31,1.56,0.15,2.31c-14.64,68.58-66.55,116.69-125.08,131.96
	c-14.91,3.89-30,5.83-45.41,5.79c-12.51-0.03-24.82-1.48-37.02-4.1c-0.61-0.13-1.24-0.31-1.79-0.61c-0.5-0.27-0.46-0.83-0.04-1.11
	c0.92-0.63,1.91-1.16,2.88-1.71c69.77-39.75,137.12-83.27,202.32-130.12C720.57,545.83,721.61,544.5,723.3,544.32z"/>
<path class="st1" d="M598.15,511c-12.44,17.19-24.78,34.25-37.02,51.17c-1.54,0.26-1.84-0.86-2.35-1.57
	c-11.44-15.77-22.86-31.55-34.27-47.34c-1.68-2.33-1.7-2.37-0.15-4.53c11.41-15.79,22.83-31.57,34.25-47.35
	c0.28-0.39,0.57-0.77,0.88-1.14c0.64-0.78,1.38-0.85,1.95-0.17c0.41,0.49,0.77,1.01,1.15,1.53c11.51,15.91,23.03,31.82,34.53,47.74
	C597.4,509.73,597.62,510.15,598.15,511z"/>
<path class="st0" d="M245.78,596.82c1.03-1.57,2.45-2.73,3.97-3.78c0.43-0.43,0.83-0.4,1.21,0.07c-1.01,1.51-2.17,2.88-3.7,3.9
	C246.7,597.43,246.21,597.36,245.78,596.82z"/>
<path class="st0" d="M245.78,596.82c0.5,0.06,0.99,0.13,1.49,0.19c-0.7,1.17-1.58,2.17-2.74,2.9c-0.55-0.08-1.1-0.16-1.65-0.25
	C243.54,598.41,244.62,597.58,245.78,596.82z"/>
<path class="st0" d="M253.61,589.2c0.38-0.44,0.73-0.92,1.15-1.32c0.32-0.31,0.83-0.56,1.16-0.17c0.13,0.15-0.16,0.75-0.37,1.07
	c-0.14,0.22-0.47,0.32-0.72,0.47C254.4,589.7,253.99,589.68,253.61,589.2z"/>
<path class="st0" d="M253.61,589.2c0.41,0.02,0.81,0.04,1.22,0.06c-0.47,0.82-0.97,1.6-1.93,1.94c-0.45,0.44-0.86,0.41-1.24-0.09
	C252.04,590.21,252.85,589.73,253.61,589.2z"/>
<path class="st0" d="M251.66,591.11c0.41,0.03,0.83,0.06,1.24,0.09c-0.46,0.82-0.97,1.61-1.94,1.91c-0.4-0.02-0.81-0.05-1.21-0.07
	C250.09,592.1,250.86,591.59,251.66,591.11z"/>
<path class="st0" d="M243.05,601.54c0.03-0.47,0.26-0.75,0.74-0.81C243.8,601.24,243.54,601.49,243.05,601.54z"/>
<path class="st0" d="M242.12,602.57c0.03-0.53,0.31-0.83,0.83-0.91C242.95,602.22,242.65,602.5,242.12,602.57z"/>
<g>
	<path class="st0" d="M810.87,336.56c-0.99,1.14-1.8,2.12-2.66,3.06c-13.65,14.83-28.14,28.81-43.01,42.4
		c-0.47,0.43-0.97,0.83-1.48,1.21c-0.46,0.35-0.96,0.2-1.27-0.17c-0.51-0.6-0.93-1.28-1.37-1.95
		c-32.12-48.8-76.02-81.98-131.84-99.3c-10.81-3.36-21.86-5.7-33.08-7.39c-14.42-2.18-28.91-3.05-43.46-2.62
		c-6.7,0.2-13.38,0.85-20.05,1.59c-16.38,1.82-32.33,5.46-47.96,10.65c-65,21.61-124.67,74.04-150.43,150.15
		c-5.29,15.61-8.85,31.61-10.81,48c-1.62,13.53-2.2,27.09-1.47,40.67c2.23,41.46,14.2,79.9,36.24,115.15
		c0.92,1.47,1.81,2.96,2.72,4.44c-1.84,1.38-3.84,1.98-5.74,2.79c-17.3,7.33-34.75,14.28-52.67,19.99
		c-4.88,1.55-4.05,2.06-6.59-2.39c-16.76-29.34-28.43-60.54-34.8-93.76c-4.5-23.5-6.48-47.18-5.33-71.04
		c3.27-68.04,26.14-128.73,69.47-181.39c37.55-45.63,84.61-77.62,140.74-96.19c15.3-5.06,30.94-8.65,46.86-11.24
		c20.92-3.4,41.96-4.57,63.05-3.39c66.2,3.7,125.25,26.33,176.85,68.03c20.99,16.96,39.33,36.5,55.1,58.43
		C808.82,333.58,809.71,334.9,810.87,336.56z"/>
	<path class="st2" d="M811.09,336.89c-1.1-1.68-2.68-4.04-4.69-6.78c-1.86-2.53-3.34-4.39-4.2-5.46
		c-6.91-8.61-10.36-12.91-13.95-16.97c-6.28-7.09-11.45-12.09-15.21-15.71c-14.86-14.3-27.78-24.02-31.15-26.52
		c-16.91-12.58-31.34-20.63-37.91-24.15c-9.74-5.22-29.73-15.22-56.87-23.24c-44.2-13.06-80.76-13.01-97.07-12.38
		c-4.2,0.16-13.16,0.6-24.61,1.99c-34.68,4.21-61.98,13.49-79.18,20.48c-33.34,13.56-57.11,30.03-69.71,39.59
		c-38.81,29.45-63.44,62.98-78.27,88.05c-23.7,40.07-32.81,76.27-36.54,94.62c-3,14.81-9.39,52.01-3.52,99.06
		c3.94,31.58,11.85,55.17,15.44,65.12c7.71,21.36,16.77,38.75,24.65,51.86"/>
</g>
<g>
	<path class="st0" d="M857.55,443.14c1.39,2.54,1.56,5.44,2.1,8.17c4.14,21.07,6.28,42.35,5.82,63.83
		c-1.48,70.05-23.69,132.76-67.63,187.41c-38,47.26-86.12,80.2-143.8,99.07c-13.79,4.51-27.87,7.86-42.18,10.33
		c-17.52,3.01-35.16,4.41-52.91,4.4c-9.26-0.01-18.51-0.65-27.74-1.5c-15.12-1.4-30-4-44.72-7.66
		c-37.74-9.37-72.29-25.58-103.86-48.21c-2.08-1.49-4.13-3.01-6.17-4.54c-1.04-0.78-0.92-1.42,0.36-2.01
		c10.54-4.9,21.14-9.67,31.62-14.7c11.05-5.3,22.03-10.76,32.95-16.33c2.26-1.15,3.89-1.08,6.08,0.13
		c17.8,9.83,36.67,16.97,56.41,21.77c10.39,2.53,20.91,4.25,31.56,5.39c14.36,1.54,28.72,1.67,43.08,0.69
		c15.47-1.05,30.71-3.7,45.65-7.87c76.96-21.51,133.87-78.05,159.4-145.01c6.28-16.46,10.72-33.38,13.22-50.82
		c1.91-13.32,2.83-26.69,2.54-40.13c-0.08-3.67-0.3-7.35-0.68-11c-0.21-2,0.48-3.21,1.99-4.44c10.92-8.86,21.82-17.74,32.62-26.73
		c7.12-5.93,14.07-12.07,21.12-18.08C855.31,444.48,856.05,443.32,857.55,443.14z"/>
	<path class="st2" d="M375.77,753.5c0.05,0.16,0.14,0.36,0.3,0.56c0.17,0.22,0.35,0.33,0.41,0.37c1.12,0.74,2.1,1.69,3.24,2.4
		c2.03,1.25,5.57,4.17,12.99,9.1c8.41,5.58,15.77,9.73,18.46,11.24c21.23,11.91,42.65,19.95,42.65,19.95
		c8.81,3.3,34.1,12.29,68.56,16.62c37.53,4.73,66.77,1.53,77.62,0.11c8.77-1.14,28.11-4.07,51.94-11.58
		c21.44-6.76,37.91-14.53,47.81-19.61c9.71-4.98,21.83-11.86,35.08-21.1c11.98-8.35,20.66-15.67,24.42-18.92
		c19.41-16.77,31.86-32.08,39.44-41.5c7.75-9.63,17.44-21.78,27.63-39.67c9.59-16.84,15-30.65,18.23-38.98
		c7.72-19.93,11.75-36.31,13.64-44.83c1-4.51,3.83-17.69,5.73-35.2c0.74-6.81,1.67-15.47,1.83-27.06
		c0.17-12.15-0.59-21.72-1.15-28.55c-0.56-6.85-1.17-11.79-1.95-18.11c-1.14-9.22-1.84-13.07-2.52-16.28
		c-0.85-4.01-1.74-7.31-2.41-9.63"/>
</g>
<g>
	<path class="st0" d="M242.12,602.57c-4.32,5.12-8.68,10.21-12.94,15.38c-7.62,9.26-14.82,18.83-21.07,29.08
		c-5.08,8.33-9.64,16.91-12.39,26.33c-1.53,5.25-2.42,10.55-1.83,16.06c0.83,7.77,4.76,13.37,11.5,17.15
		c4.38,2.46,9.15,3.7,14.04,4.45c10.04,1.54,20.06,0.77,30.08-0.52c24.3-3.13,47.62-10.11,70.67-18.09
		c36.92-12.79,72.54-28.63,107.52-45.96c49.62-24.58,97.62-52.04,144.48-81.51c48.55-30.53,95.67-63.12,140.92-98.37
		c36.09-28.11,70.9-57.69,103.19-90.15c14.21-14.29,27.82-29.12,40.13-45.1c8.2-10.64,15.64-21.78,22.04-33.61
		c2.74-5.06,5.27-10.22,6.98-15.72c1.37-4.43,2.4-8.93,1.66-13.66c-1.32-8.47-6.28-11.76-13.2-12.96
		c-6.56-1.14-13.12-0.63-19.58,0.3c-14.08,2.03-27.74,5.73-40.92,11.15c-1.91,0.79-3.81,1.62-5.7,2.46
		c-2.64,1.17-2.66,1.21-4.54-0.6c-4.72-4.54-9.43-9.1-14.13-13.67c-0.56-0.55-1.22-1.05-1.36-1.97c1.24-1.25,2.96-1.69,4.52-2.38
		c26.1-11.64,53.09-20.6,80.94-26.99c9.33-2.14,18.71-4.04,28.17-5.36c9.8-1.37,19.66-2.48,29.6-2.09
		c6.39,0.25,12.72,0.97,18.9,2.75c3.23,0.94,6.32,2.21,9.18,3.97c7.65,4.72,11.53,11.71,12.13,20.59
		c0.48,7.14-1.13,13.96-3.42,20.65c-2.91,8.49-6.99,16.43-11.55,24.12c-8.75,14.74-19.1,28.33-30.09,41.44
		c-19.75,23.56-41.42,45.28-63.86,66.23c-40,37.34-82.41,71.77-126.23,104.48c-83.66,62.42-171.27,118.7-262.88,168.73
		c-40.71,22.24-82.18,42.96-124.73,61.46c-29.07,12.64-58.56,24.19-88.85,33.61c-14.91,4.64-29.98,8.7-45.31,11.64
		c-12.86,2.47-25.83,4.31-38.99,4.07c-6.71-0.12-13.37-0.85-19.86-2.74c-1.37-0.4-2.75-0.82-4.08-1.34
		c-12.91-5.12-19-15.13-17.84-28.98c0.62-7.42,2.79-14.38,5.63-21.18c3.83-9.16,8.77-17.72,14.18-26.02
		c9.17-14.08,19.6-27.22,30.59-39.91c17.8-20.57,36.99-39.8,56.86-58.36c0.69-0.65,1.47-1.19,2.22-1.78
		c0.61-0.33,1.16-0.25,1.65,0.25c-0.24,0.28-0.49,0.55-0.73,0.83c-0.14,0.37-0.38,0.65-0.74,0.81l-0.1,0.12
		C242.75,602.04,242.47,602.34,242.12,602.57z"/>
	<path class="st3" d="M255.39,587.27c-1.29,1.26-3.19,3.11-5.5,5.35c-9.63,9.32-15.79,15.02-20.18,19.18
		c-9.99,9.46-17.5,17.23-21.1,20.94c-12.96,13.39-22.04,23.88-23.92,26.06c-6.21,7.2-12.63,14.66-20.48,25.22
		c-7.89,10.61-13.49,19.33-18.11,27.36c-2.1,3.65-6.1,10.81-9.4,20.33c-0.92,2.65-2.32,7.03-3.06,12.76
		c-0.44,3.44-0.83,6.67-0.08,10.85c0.3,1.69,0.94,5.05,3.13,8.79c2.95,5.02,6.92,7.68,8.87,8.94c0.56,0.36,2.29,1.47,4.74,2.52
		c2.73,1.18,5.03,1.73,7.41,2.22c7.2,1.46,13.13,1.89,13.38,1.91c6.67,0.46,12.03,0.22,15.52,0c10.93-0.7,20.13-2.35,28.74-4.13
		c17.32-3.57,30.26-7.26,31.87-7.72c30.55-8.76,57.7-19.03,78.19-27.4c16.55-6.76,28.15-12.04,42.99-18.8
		c35.95-16.37,62.69-30.1,71.66-34.74c26.81-13.88,45.51-24.61,70.17-38.75c17.93-10.29,44.77-25.72,79.57-47.46
		c44.7-27.94,76.83-50.23,84.38-55.49c20.77-14.46,36.03-25.71,46.55-33.48c29.25-21.6,59.45-43.89,94.93-74.06
		c0,0,39.25-33.3,71.85-66.04c12.3-12.35,23.92-25.15,23.92-25.15c8.49-9.34,13.61-15.46,15.06-17.2
		c4.55-5.46,9.61-11.55,15.75-20.03c7.13-9.85,11.8-17.51,13.7-20.69c5.35-8.95,7.71-14.09,8.77-16.51
		c3.31-7.51,4.53-12.28,5.04-14.5c0.91-3.91,1.74-7.64,1.49-12.61c-0.15-2.94-0.31-6.69-2.29-11.01c-0.61-1.32-1.97-3.99-4.53-6.71
		c-3.05-3.24-6.15-4.79-8.6-6.02c-3.65-1.83-6.77-2.62-8.43-3.04c-1.97-0.49-3.45-0.72-5.16-0.97c0,0-5.35-0.8-10.55-0.97
		c-16.39-0.54-35.77,2.81-35.77,2.81c-8.17,1.41-21.72,4.01-38.92,8.66c-12.31,3.32-23.24,7.13-45.11,14.73
		c-4,1.39-10.28,3.61-18.11,7.51c-2.58,1.29-4.65,2.42-5.96,3.15"/>
</g>
</svg>
